<?xml version="1.0" encoding="utf-8"?>
<!-- Generator: Adobe Illustrator 16.0.0, SVG Export Plug-In . SVG Version: 6.00 Build 0)  -->
<!DOCTYPE svg PUBLIC "-//W3C//DTD SVG 1.1//EN" "http://www.w3.org/Graphics/SVG/1.1/DTD/svg11.dtd">
<svg version="1.1" id="Layer_1" xmlns="http://www.w3.org/2000/svg" xmlns:xlink="http://www.w3.org/1999/xlink" x="0px" y="0px"
	 width="187.109px" height="155.916px" viewBox="0 0 187.109 155.916" enable-background="new 0 0 187.109 155.916"
	 xml:space="preserve">
<g>
	<path fill-rule="evenodd" clip-rule="evenodd" fill="#55B3E5" d="M93.684,37.533v0.01c-4.11,14.34-8.331,29.061-12.242,42.773
		c-0.826,0.746-1.69,1.561-2.587,2.447L36.23,127.34l-21.844,5.332c-10.897,2.23-15.604-1.035-10.031-10.129
		c13.504-18.172,33.367-36.494,46.991-53.771L71.729,9.566c2.646-7.701,11.037-13.684,14.719,2.6
		c0.865,3.045,1.752,6.148,2.648,9.305c0.396,1.412,0.805,2.846,1.224,4.289C91.423,29.631,92.547,33.572,93.684,37.533z"/>
	<path fill-rule="evenodd" clip-rule="evenodd" fill="#55B3E5" d="M172.981,132.672l-20.562-5.014h-0.009
		c-14.162-14.641-29.288-30.334-42.775-44.227c-1.324-1.195-2.568-2.26-3.752-3.217c-3.891-13.682-8.111-28.361-12.199-42.672v-0.01
		c0-0.021,0.01-0.041,0.021-0.07c0.308-1.064,0.606-2.119,0.902-3.176c0.37-1.303,0.746-2.596,1.106-3.881
		c0.45-1.531,0.874-3.055,1.313-4.566c0.887-3.115,1.762-6.191,2.627-9.217c0.43-1.502,0.847-2.986,1.265-4.457
		c3.682-16.283,12.071-10.301,14.73-2.6l20.369,59.205c13.625,17.277,33.487,35.6,46.995,53.771
		C188.574,131.637,183.877,134.902,172.981,132.672z"/>
	<path fill-rule="evenodd" clip-rule="evenodd" fill="#109ED9" d="M105.883,80.215c-10.179-8.209-15.723-7.76-24.441,0.102
		c3.911-13.713,8.132-28.434,12.242-42.773C97.772,51.854,101.993,66.533,105.883,80.215z"/>
	<path fill-rule="evenodd" clip-rule="evenodd" fill="#1198D5" d="M93.684,113.287c-14.712-4.199-17.796-8.957-14.004-26.762
		c0.577-2.039,1.164-4.109,1.762-6.209c8.719-7.861,14.263-8.311,24.441-0.102c0.606,2.131,1.206,4.24,1.793,6.311
		C111.467,104.33,108.393,109.088,93.684,113.287z"/>
	<path fill-rule="evenodd" clip-rule="evenodd" fill="#109ED9" d="M93.684,113.287c-0.27,0.068-0.548,0.148-0.827,0.229
		L36.23,127.34l42.625-44.576c0.896-0.887,1.761-1.701,2.587-2.447c-0.598,2.1-1.185,4.17-1.762,6.209
		C75.888,104.33,78.972,109.088,93.684,113.287z"/>
	<path fill-rule="evenodd" clip-rule="evenodd" fill="#109ED9" d="M152.411,127.658L94.5,113.516
		c-0.279-0.08-0.548-0.15-0.815-0.229c14.709-4.199,17.783-8.957,13.992-26.762c-0.587-2.07-1.187-4.18-1.793-6.311
		c1.184,0.957,2.428,2.021,3.752,3.217C123.123,97.324,138.249,113.018,152.411,127.658z"/>
	<path fill-rule="evenodd" clip-rule="evenodd" fill="#55B3E5" d="M158.301,153.045l-61.453-11.953
		c-21.785,3.154-47.58,11.197-70.072,13.814c-10.658,0.279-11.137-5.434-3.753-13.754L36.23,127.34l56.627-13.824
		c0.279-0.08,0.558-0.16,0.827-0.229c0.268,0.078,0.536,0.148,0.815,0.229l57.911,14.143c0.389,0.396,0.774,0.795,1.163,1.193
		c3.354,3.463,6.638,6.857,9.832,10.15C175.678,150.33,166.292,154.607,158.301,153.045z"/>
	<path fill-rule="evenodd" clip-rule="evenodd" fill="#0094D9" d="M93.681,37.539"/>
</g>
<g>
</g>
<g>
</g>
<g>
</g>
<g>
</g>
<g>
</g>
<g>
</g>
</svg>
